HIERARCHY
ROOT hemi_large
{
	OFFSET 0.000000 0.000000 0.000000
	CHANNELS 6 Xposition Yposition Zposition Yrotation Xrotation Zrotation
	End Site
	{
		OFFSET 0.000000 0.000000 0.000000
	}
}
MOTION
Frames: 163
Frame Time: 0.008333334
-0.068244 5.215853 4.178485 125.382900 42.100780 -5.885834 
-0.066054 5.219635 4.174769 125.547900 42.512390 -5.737701 
-0.063733 5.222457 4.172570 125.695600 42.661490 -5.622864 
-0.061878 5.224119 4.170327 125.707300 42.856780 -5.693634 
-0.060732 5.226456 4.168394 125.795300 43.018130 -5.493378 
-0.059256 5.227202 4.166435 125.933700 43.304440 -5.272644 
-0.058197 5.227917 4.164566 126.048800 43.444410 -5.293823 
-0.058333 5.229408 4.162456 126.329800 43.621590 -5.152557 
-0.058277 5.229937 4.160726 126.341000 43.725760 -5.264557 
-0.058816 5.230057 4.159256 126.566600 43.862450 -5.174469 
-0.058883 5.230031 4.158010 126.716200 43.935510 -5.159729 
-0.058738 5.228561 4.155717 126.965400 44.060990 -5.073547 
-0.058409 5.227977 4.154271 127.103600 44.175220 -4.971954 
-0.058436 5.228780 4.153434 127.159600 44.219060 -4.963470 
-0.058915 5.230297 4.153755 127.372200 44.246260 -4.979614 
-0.058016 5.231465 4.155383 127.472700 44.189240 -4.819977 
-0.057542 5.232662 4.156181 127.484200 44.122440 -4.666626 
-0.057049 5.233946 4.158773 127.267300 44.130020 -4.595001 
-0.056560 5.234393 4.162399 127.194100 44.077630 -4.602936 
-0.056458 5.235507 4.163942 127.238600 43.832040 -4.704254 
-0.056752 5.237044 4.167189 127.305300 43.888410 -4.591431 
-0.058319 5.238628 4.171146 127.139200 43.632140 -4.658722 
-0.061865 5.241237 4.174318 127.158600 43.364440 -4.564392 
-0.065625 5.243718 4.177943 126.904500 43.236870 -4.740234 
-0.069391 5.246737 4.180851 127.184000 42.738880 -4.580811 
-0.075417 5.250137 4.185761 127.026600 42.385440 -4.827057 
-0.082438 5.253806 4.189221 127.038900 41.969510 -4.691803 
-0.089359 5.258383 4.192815 127.018200 41.351260 -4.965515 
-0.099940 5.263165 4.195938 127.036200 40.627630 -4.888641 
-0.111859 5.268785 4.199947 127.047600 40.042280 -4.978363 
-0.125770 5.275409 4.202757 126.985900 39.303530 -5.056305 
-0.141380 5.281266 4.208508 127.060700 38.278390 -5.383148 
-0.159634 5.287125 4.213353 126.855700 37.411850 -5.605530 
-0.179893 5.292490 4.218975 126.824300 36.431700 -5.640808 
-0.201987 5.297051 4.225389 126.842300 35.122940 -5.702820 
-0.226855 5.300570 4.231967 126.858300 34.115430 -5.832153 
-0.252870 5.306521 4.238904 126.872300 32.527600 -5.995239 
-0.282880 5.312478 4.246040 127.079400 30.963990 -6.125458 
-0.316733 5.320727 4.253589 127.118600 28.949140 -6.330627 
-0.355465 5.329734 4.262702 127.186400 26.792890 -6.337769 
-0.396136 5.337477 4.275085 127.305400 24.554190 -6.261108 
-0.441030 5.342543 4.285512 127.437500 22.146550 -6.245972 
-0.488396 5.343276 4.296712 127.593300 19.869880 -6.031555 
-0.538739 5.339087 4.306892 127.660000 17.770200 -6.293671 
-0.591984 5.331441 4.314708 127.894800 15.729990 -6.490723 
-0.645977 5.317127 4.323598 128.334700 13.903690 -6.589386 
-0.702204 5.300837 4.330173 129.086000 11.983770 -6.612061 
-0.759941 5.281187 4.337438 129.721100 10.051290 -6.667297 
-0.819509 5.260989 4.342362 130.650800 7.872095 -6.598419 
-0.882766 5.240458 4.348731 131.597300 5.604191 -6.717316 
-0.949459 5.219299 4.357754 132.506800 3.182657 -7.003357 
-1.018335 5.196790 4.368049 133.216200 0.501685 -7.408508 
-1.087820 5.170541 4.379374 134.058200 -1.997955 -7.711090 
-1.156156 5.139623 4.393676 134.715100 -4.394012 -7.992889 
-1.223252 5.104228 4.405529 135.389300 -6.575165 -8.442413 
-1.288383 5.064055 4.418138 136.095300 -8.641418 -9.136108 
-1.349090 5.018002 4.427631 136.722800 -10.230990 -9.857269 
-1.407906 4.968819 4.436507 137.271800 -11.501620 -10.532410 
-1.463479 4.917430 4.443869 138.018200 -12.597600 -11.396970 
-1.519012 4.864656 4.450231 138.706600 -13.743320 -12.005100 
-1.574647 4.813293 4.456192 139.800900 -14.902130 -13.095520 
-1.631239 4.761656 4.460556 140.800500 -16.083710 -13.974150 
-1.687992 4.711259 4.465438 141.924000 -17.586460 -15.103910 
-1.746910 4.658700 4.473541 143.150900 -19.086460 -16.032320 
-1.802832 4.605086 4.481473 144.195400 -20.713870 -16.853360 
-1.856717 4.548479 4.489402 145.389800 -22.331630 -17.748780 
-1.908343 4.489596 4.495059 146.892600 -23.633270 -18.802090 
-1.957470 4.428479 4.498274 148.138800 -24.713990 -19.681950 
-2.003893 4.365559 4.497523 149.544100 -25.518800 -20.688020 
-2.047487 4.301430 4.494403 150.919700 -26.061340 -21.760440 
-2.088829 4.236248 4.490747 152.278600 -26.478000 -22.693240 
-2.128272 4.169767 4.487940 153.549400 -26.895570 -23.578370 
-2.166172 4.103362 4.488436 154.715900 -27.497530 -24.481450 
-2.203264 4.035485 4.490158 155.892000 -28.113490 -25.393250 
-2.239980 3.968693 4.491708 156.876100 -29.003230 -26.479160 
-2.278092 3.900197 4.495414 157.764800 -29.930330 -27.694980 
-2.314445 3.830712 4.498526 158.703000 -30.901250 -29.333770 
-2.348396 3.760243 4.499400 159.748400 -31.770540 -30.882870 
-2.377441 3.687904 4.496603 160.747100 -32.295410 -32.426450 
-2.402726 3.614638 4.490617 161.700200 -32.588810 -33.759090 
-2.423969 3.540570 4.480325 162.830400 -32.512150 -34.834930 
-2.440378 3.466079 4.467979 163.909000 -32.264680 -35.834010 
-2.454586 3.392105 4.454446 165.015000 -31.868930 -36.583010 
-2.467025 3.319323 4.440717 166.095600 -31.452760 -37.464660 
-2.478874 3.247728 4.428456 167.083500 -31.033260 -38.113590 
-2.489438 3.178917 4.419127 168.043000 -30.759550 -38.778870 
-2.500140 3.113157 4.411966 168.825700 -30.658260 -39.564210 
-2.511598 3.050250 4.407119 169.552100 -30.671230 -40.453310 
-2.523520 2.991228 4.403969 170.171600 -30.820400 -41.427090 
-2.535235 2.935258 4.402559 170.877200 -30.941620 -42.442350 
-2.546324 2.881951 4.402236 171.367700 -31.119020 -43.472110 
-2.554911 2.831173 4.401567 171.944700 -31.234740 -44.355960 
-2.562612 2.783916 4.401118 172.313700 -31.270050 -45.063420 
-2.567119 2.740046 4.399848 172.660500 -31.106200 -45.675200 
-2.570882 2.699885 4.398936 172.980700 -31.037960 -46.041530 
-2.575288 2.662649 4.399590 173.349400 -31.003720 -46.496890 
-2.579556 2.629060 4.400218 173.732800 -30.956630 -46.916750 
-2.584579 2.598875 4.401694 174.195500 -30.884430 -47.384890 
-2.589773 2.570348 4.402547 174.606600 -30.966340 -47.795170 
-2.595488 2.544769 4.404654 174.887800 -30.930180 -48.143800 
-2.601662 2.521915 4.405488 175.471500 -30.941830 -48.647090 
-2.607509 2.500842 4.406595 175.799200 -30.941930 -48.914980 
-2.612030 2.481323 4.407446 176.196500 -30.843170 -49.115660 
-2.614856 2.464366 4.406577 176.523300 -30.676940 -49.135310 
-2.617496 2.448645 4.404968 176.815500 -30.377870 -49.211120 
-2.619897 2.434072 4.402491 177.090500 -30.070190 -49.159060 
-2.622020 2.420800 4.400176 177.319400 -29.746520 -49.071200 
-2.624301 2.408900 4.395994 177.556700 -29.363620 -48.975800 
-2.626077 2.397560 4.391718 177.821400 -28.864530 -48.721980 
-2.627549 2.386899 4.385492 178.147000 -28.220730 -48.453030 
-2.628768 2.376646 4.376804 178.520000 -27.543490 -48.069980 
-2.629451 2.366236 4.367471 178.834200 -26.770080 -47.471190 
-2.630535 2.355288 4.356141 179.338100 -25.836820 -46.904820 
-2.631118 2.343471 4.343114 179.862200 -24.770230 -46.149990 
-2.630643 2.330534 4.328244 -179.589300 -23.682740 -45.473480 
-2.630439 2.316455 4.310699 -179.156300 -22.387240 -44.523070 
-2.628956 2.299940 4.291879 -178.633100 -21.001770 -43.409030 
-2.626669 2.280933 4.270918 -178.113400 -19.560000 -42.305050 
-2.624035 2.259046 4.246608 -177.421500 -17.989560 -41.136080 
-2.621776 2.234872 4.221001 -176.942200 -16.232700 -39.739620 
-2.619600 2.207988 4.195058 -176.318400 -14.474240 -38.335170 
-2.617417 2.177754 4.167447 -175.543800 -12.599820 -36.583890 
-2.615550 2.145254 4.140135 -174.818200 -10.869630 -34.956150 
-2.614285 2.110586 4.113502 -173.879800 -9.049469 -33.289950 
-2.612829 2.074597 4.087358 -173.174300 -7.473480 -31.439240 
-2.613035 2.037082 4.061914 -172.276300 -5.938873 -29.785030 
-2.614514 1.997683 4.037485 -171.442500 -4.303589 -28.248750 
-2.617386 1.956851 4.012230 -170.597800 -2.870422 -26.761780 
-2.621678 1.914033 3.989398 -169.694500 -1.386505 -25.372680 
-2.625955 1.870102 3.967934 -168.772300 -0.051727 -23.856930 
-2.630210 1.825479 3.946391 -167.914300 1.192490 -22.286320 
-2.634149 1.780173 3.926933 -167.055700 2.163379 -20.866330 
-2.638433 1.735557 3.907494 -166.279900 3.144523 -19.502200 
-2.642069 1.690808 3.891052 -165.483200 4.004925 -18.182770 
-2.645273 1.646855 3.874308 -164.721700 4.638481 -16.856320 
-2.646528 1.603169 3.860050 -164.124400 5.349926 -15.588440 
-2.649495 1.560599 3.845014 -163.505100 5.951101 -14.570620 
-2.651861 1.518252 3.831504 -162.918400 6.575031 -13.574370 
-2.654375 1.477173 3.817988 -162.348300 7.149648 -12.640530 
-2.657404 1.438732 3.806482 -161.782100 7.533033 -11.678440 
-2.661833 1.402383 3.797768 -161.265100 7.883145 -10.865420 
-2.667467 1.369505 3.789853 -160.554000 7.974710 -10.092100 
-2.672517 1.338475 3.782843 -159.897400 8.029655 -9.417755 
-2.677459 1.308146 3.777511 -159.355300 8.023535 -8.669525 
-2.682737 1.280298 3.772217 -159.014600 8.067780 -8.208466 
-2.688257 1.253369 3.766355 -158.570800 8.133911 -7.934631 
-2.693559 1.227748 3.761217 -158.203200 8.153342 -7.610718 
-2.698216 1.203164 3.756535 -157.954100 8.259204 -7.330994 
-2.703047 1.179992 3.752051 -157.623600 8.316132 -6.979828 
-2.707724 1.158686 3.747494 -157.190400 8.164618 -6.668793 
-2.712625 1.137908 3.742823 -156.789000 8.168776 -6.104034 
-2.717415 1.118400 3.738302 -156.219600 7.945774 -5.586548 
-2.721421 1.099539 3.732793 -155.755600 7.809345 -4.990021 
-2.725997 1.080872 3.728078 -155.231700 7.734332 -4.526001 
-2.729057 1.062203 3.722176 -154.916700 7.678287 -3.814026 
-2.732094 1.043973 3.716698 -154.603300 7.629449 -3.312927 
-2.735271 1.026837 3.711035 -154.323100 7.556898 -2.941437 
-2.738307 1.009639 3.705424 -154.069500 7.560044 -2.363373 
-2.741267 0.992964 3.699605 -153.724400 7.517801 -1.961304 
-2.744514 0.978866 3.693829 -153.486200 7.536231 -1.682037 
-2.749352 0.966762 3.688680 -153.128000 7.393880 -1.512756 
-2.754137 0.956521 3.684489 -152.949400 7.280509 -1.446747 
-2.759610 0.948373 3.681127 -152.637400 7.020338 -1.439209 
